<?xml version="1.0" encoding="utf-8"?>
<!-- Generator: Adobe Illustrator 18.0.0, SVG Export Plug-In . SVG Version: 6.00 Build 0)  -->
<!DOCTYPE svg PUBLIC "-//W3C//DTD SVG 1.1//EN" "http://www.w3.org/Graphics/SVG/1.1/DTD/svg11.dtd">
<svg version="1.1" id="Capa_1" xmlns="http://www.w3.org/2000/svg" xmlns:xlink="http://www.w3.org/1999/xlink" x="0px" y="0px"
	 viewBox="0 0 226.8 226.8" enable-background="new 0 0 226.8 226.8" xml:space="preserve">
<path fill="#010101" d="M163.2,204.9c-19.3,0-36.1-2.8-49.8-8.2c-13.7,5.5-30.4,8.2-49.8,8.2c-1.8,0-3.4-1-4.3-2.5
	c-9.7-16.7-15.6-32.6-17.8-47.2c-11.6-9.1-22.3-22.3-32-39c-0.9-1.5-0.9-3.4,0-5c9.7-16.7,20.4-29.9,32-39
	c2.1-14.6,8.1-30.5,17.8-47.2c0.9-1.5,2.5-2.5,4.3-2.5c19.3,0,36.1,2.8,49.8,8.2c13.7-5.5,30.4-8.2,49.8-8.2c1.8,0,3.4,1,4.3,2.5
	c9.7,16.7,15.6,32.6,17.8,47.2c11.6,9.2,22.3,22.3,32,39c0.9,1.5,0.9,3.4,0,5c-9.7,16.7-20.4,29.9-32,39
	c-2.1,14.6-8.1,30.5-17.8,47.2C166.6,204,165,204.9,163.2,204.9z M126,190.4c10,2.8,21.5,4.3,34.3,4.5c6.2-11.2,10.7-21.9,13.2-31.9
	c-8.8,4.8-17.9,7.3-27.2,7.7C141.3,178.6,134.5,185.2,126,190.4z M53.2,163c2.6,10,7,20.7,13.3,31.9c12.8-0.2,24.3-1.7,34.3-4.5
	c-8.5-5.3-15.3-11.9-20.3-19.7C71.2,170.3,62.1,167.8,53.2,163z M92.2,170c5.3,6.5,12.4,11.9,21.2,15.9c8.8-4,15.9-9.4,21.2-15.9
	c-7.2-1.2-14.4-3.8-21.2-7.6C106.6,166.2,99.5,168.8,92.2,170z M81.5,143c0.6,6.3,2.2,12.2,4.8,17.7c6-0.4,11.9-2,17.7-4.7
	c-3.4-2.7-6.7-5.8-9.7-9.1C89.8,145.9,85.6,144.6,81.5,143z M122.8,156c5.8,2.7,11.7,4.2,17.7,4.7c2.6-5.4,4.2-11.3,4.8-17.7
	c-4.1,1.6-8.3,2.9-12.8,3.9C129.5,150.2,126.2,153.2,122.8,156z M155.5,138c0,7.9-1.4,15.3-4,22.2c8.3-1.3,16.4-4.8,24.3-10.4
	c0.9-9.7-0.2-18.5-3.2-26.3C168,129.2,162.2,134.1,155.5,138z M50.9,149.8c7.9,5.6,16.1,9.1,24.3,10.4c-2.6-6.9-3.9-14.3-4-22.2
	c-6.7-3.9-12.5-8.9-17.2-14.5C51.1,131.3,50,140.1,50.9,149.8z M111.1,148.9c0.7,0.6,1.5,1.1,2.3,1.7c0.8-0.5,1.5-1.1,2.3-1.7
	C114.1,148.9,112.6,148.9,111.1,148.9z M179.2,113.7c4.3,8.2,6.7,17.4,6.9,27.4c7.4-7.2,14.5-16.4,21-27.4
	c-6.6-11-13.6-20.2-21-27.4C185.9,96.3,183.5,105.5,179.2,113.7z M19.6,113.7c6.6,11,13.6,20.2,21,27.4c0.3-10,2.6-19.2,6.9-27.4
	c-4.3-8.2-6.7-17.4-6.9-27.4C33.2,93.5,26.2,102.7,19.6,113.7z M99.5,137.7c9.1,1.6,18.6,1.6,27.7,0c5.9-7.1,10.7-15.3,13.8-24
	c-3.2-8.7-7.9-16.9-13.9-24c-9.1-1.6-18.6-1.6-27.7,0c-5.9,7.1-10.7,15.3-13.8,24C88.8,122.4,93.6,130.6,99.5,137.7z M81.5,132.1
	c0.9,0.4,1.7,0.8,2.6,1.1c-0.8-1.3-1.6-2.6-2.3-4C81.7,130.2,81.6,131.2,81.5,132.1z M145,129.3c-0.7,1.3-1.5,2.6-2.3,3.9
	c0.9-0.4,1.7-0.7,2.6-1.1C145.2,131.2,145.1,130.3,145,129.3z M151.6,113.7c1.4,4.3,2.4,8.7,3,13c5.2-3.7,9.5-8,12.9-13
	c-3.4-5-7.7-9.3-12.9-13C154,105.1,153,109.4,151.6,113.7z M59.2,113.7c3.4,5,7.7,9.3,12.9,13c0.6-4.3,1.7-8.7,3-13
	c-1.4-4.3-2.4-8.7-3-13C66.9,104.4,62.6,108.7,59.2,113.7z M50.9,77.6c-0.9,9.7,0.2,18.5,3.2,26.3c4.7-5.7,10.5-10.6,17.2-14.5
	c0.1-7.8,1.4-15.3,4-22.2C67,68.5,58.8,72,50.9,77.6z M155.5,89.4c6.8,4,12.5,8.8,17.2,14.5c3-7.8,4.1-16.6,3.2-26.3
	c-7.9-5.6-16.1-9.1-24.4-10.4C154.1,74.1,155.4,81.6,155.5,89.4z M142.7,94.2c0.8,1.3,1.6,2.6,2.3,4c0.1-0.9,0.2-1.9,0.3-2.8
	C144.4,94.9,143.5,94.5,142.7,94.2z M81.5,95.3c0.1,0.9,0.2,1.9,0.3,2.8c0.7-1.3,1.5-2.6,2.3-3.9C83.2,94.5,82.4,94.9,81.5,95.3z
	 M132.5,80.6c4.4,1,8.7,2.3,12.8,3.9c-0.6-6.3-2.2-12.2-4.8-17.7c-6,0.4-11.9,2-17.7,4.7C126.2,74.2,129.5,77.2,132.5,80.6z
	 M86.3,66.8c-2.6,5.4-4.2,11.3-4.8,17.7c4.1-1.6,8.3-2.9,12.8-3.9c3.1-3.4,6.3-6.4,9.7-9.1C98.2,68.8,92.3,67.2,86.3,66.8z
	 M113.4,76.9c-0.8,0.5-1.5,1.1-2.3,1.7c1.5,0,3,0,4.5,0C114.9,78,114.1,77.4,113.4,76.9z M92.2,57.4c7.3,1.2,14.3,3.7,21.2,7.6
	c6.8-3.9,13.9-6.5,21.2-7.6c-5.3-6.5-12.4-11.8-21.2-15.9C104.6,45.6,97.5,50.9,92.2,57.4z M146.3,56.7c9.3,0.4,18.4,2.9,27.2,7.7
	c-2.6-10-7-20.7-13.2-31.9C147.5,32.7,136,34.2,126,37C134.5,42.2,141.3,48.8,146.3,56.7z M66.5,32.5c-6.2,11.2-10.7,21.9-13.2,31.9
	c8.8-4.8,17.9-7.3,27.2-7.7c5-7.9,11.8-14.5,20.3-19.7C90.8,34.2,79.3,32.7,66.5,32.5z"/>
</svg>
